<svg width="208" height="100" viewBox="0 0 208 100" fill="none" xmlns="http://www.w3.org/2000/svg">
<g clip-path="url(#clip0_10166_3259)">
<path d="M102.321 63.9117C102.321 65.0451 101.871 65.0451 100.976 65.0451H100.736L100.519 64.9365C100.228 64.7911 99.9379 64.6457 99.7157 64.4232L99.5459 64.2533L99.4672 64.0186C99.4654 64.0133 99.4549 63.9713 99.4462 63.9398H99.4479C99.3132 63.4703 99.1872 63.0201 99.0752 62.5909C98.9475 62.1022 98.8407 61.6747 98.7568 61.3121V61.3086C98.258 59.1557 98.0288 57.4074 98.0288 56.1129C97.9956 55.7643 97.9343 55.251 97.8678 54.7062C97.7681 53.8636 97.6596 52.9562 97.6001 52.1241V52.0523V42.7522V41.7239H98.6255H99.4794C100.843 41.7239 101.609 42.5682 101.779 44.2534L101.787 44.3375V44.3533V46.063V49.055V49.1268C101.681 50.6228 101.681 51.1904 101.681 51.1922V56.535C101.681 58.3201 101.891 60.7323 102.309 63.7733L102.321 63.8609V63.9117Z" fill="#E4032E"/>
<path d="M43.498 36.2321C43.498 36.5789 43.0343 37.5074 42.1086 39.3607L42.0841 39.401L42.0771 39.4115C41.1007 41.1703 40.5425 42.1408 40.1575 42.8117C40.0945 42.9221 40.0543 42.9921 40.1575 42.8117H40.1558C40.084 42.9378 39.9808 43.1165 39.8373 43.367C39.3911 44.1466 38.7734 45.2799 37.9807 46.7672C37.8005 47.3435 37.5205 47.9812 37.1688 48.6854C36.8171 49.3913 36.3796 50.1814 35.8914 51.0538L35.8809 51.0695C35.7532 51.2868 35.6482 51.4672 35.5572 51.6213C35.4067 51.8771 35.2982 52.0575 35.223 52.1819C34.677 53.0893 34.0786 54.0423 33.4609 54.9725C33.2106 55.6171 32.8204 56.4369 32.3549 57.4232C32.1135 57.9347 31.8352 58.5215 31.7617 58.6774L31.725 58.7528C31.0916 59.8634 30.3584 60.3399 29.5552 60.3399C29.4729 60.3399 29.389 60.3399 29.2315 60.2873L29.2332 60.2838C29.088 60.2348 28.9357 60.1524 28.7888 60.0351L28.7905 60.0333C28.7065 59.9667 28.598 59.8739 28.4668 59.7565C27.8631 59.2117 26.6294 57.9873 24.8533 56.0533C22.323 53.4134 20.4087 51.2517 19.1208 49.57C17.7122 47.7324 17 46.3503 17 45.4236C17 45.1678 17.0017 44.9103 17.2117 44.609C17.2117 44.6073 17.2135 44.6055 17.2135 44.6038C17.3325 44.4759 17.4357 44.334 17.5687 44.2236C17.8242 44.0099 18.1339 43.8628 18.4611 43.7559H20.232L20.5225 44.2902C20.8619 44.9016 21.3834 45.7424 22.0221 46.7725C22.4053 47.3926 22.8323 48.0793 23.1437 48.5873C23.2995 48.7992 23.4675 49.0165 23.6494 49.2389C23.8244 49.4544 24.0449 49.7119 24.3091 50.0115L24.3074 50.0132C25.3905 51.2412 26.9199 52.7793 28.9217 54.6309L41.3964 35.0356L42.0824 33.9565L42.987 34.8622C43.498 35.379 43.498 35.8064 43.498 36.2321Z" fill="#E4032E"/>
<path d="M97.4932 35.9116V35.9081C97.4949 35.2232 97.7556 34.575 98.1896 34.0985C98.6411 33.6028 99.2763 33.284 100.002 33.2822H100.006H100.011H100.015C100.722 33.284 101.381 33.5905 101.859 34.0688C102.333 34.5452 102.636 35.1987 102.639 35.9011V35.9046V35.9099V35.9134C102.638 36.6456 102.319 37.285 101.822 37.737C101.346 38.1697 100.704 38.4307 100.023 38.4342H100.02H100.013H100.009C99.3025 38.4324 98.6743 38.1574 98.2194 37.7002C97.7679 37.2482 97.4949 36.6246 97.4932 35.9221V35.9186V35.9116Z" fill="#E4032E"/>
<path d="M64.3875 61.4364L57.6436 54.7867H47.2775C47.0955 54.7867 46.6948 55.6258 46.1086 57.3022C45.2004 59.8983 44.238 61.1982 43.2213 61.1982C42.7891 61.1982 42.4584 61.086 42.1522 60.8898C41.9054 60.7322 41.7357 60.564 41.5345 60.3626L41.419 60.2469L41.342 60.0928C41.181 59.7705 41.02 59.4481 41.02 58.9944V58.7544L41.1285 58.5372C41.1303 58.5337 41.6587 57.3688 42.6071 55.2597L42.6474 55.1721L42.6876 55.1125C42.8084 54.9286 43.0516 54.2349 43.4908 52.9876C43.678 52.4551 43.4173 53.1908 43.7515 52.2414L43.8898 51.849L44.2607 51.6633C44.3132 51.637 44.5285 51.4233 44.7612 51.1921C45.1042 50.635 45.4909 49.8555 45.9459 48.8377C46.4271 47.7604 47.015 46.3414 47.7185 44.6089H47.7202C47.8374 44.2884 48.0334 43.7068 48.2662 43.0026C48.4831 42.3492 48.7404 41.5819 49.0816 40.6114H49.0798C49.2356 40.1454 49.5348 39.8371 49.981 39.6515C50.2785 39.5288 50.6197 39.478 51.0134 39.478C51.4036 39.478 51.9443 39.6427 52.436 39.9703L52.6198 40.0929L52.7405 40.2908C53.4772 41.5013 54.3784 42.908 55.43 44.4933C56.4572 46.0401 57.6559 47.7989 59.005 49.7469L59.0067 49.7451C60.2194 51.4811 61.3183 53.0157 62.4155 54.5467C63.6141 56.2214 64.8162 57.9013 65.8399 59.3641L66.0236 59.6268V59.9527C66.0236 59.9614 66.0411 60.0437 66.0569 60.1261V60.1296C66.0936 60.3135 66.1304 60.4957 66.1304 60.7007V63.1496L64.3875 61.4364ZM55.6033 51.4741L51.3669 45.5934L49.1813 50.9276L55.6033 51.4741Z" fill="#E4032E"/>
<path d="M129.671 61.4942L122.927 54.8445H112.561C112.379 54.8445 111.978 55.6836 111.392 57.3601C110.484 59.9562 109.522 61.256 108.505 61.256C108.073 61.256 107.742 61.1439 107.436 60.9477C107.189 60.79 107.019 60.6218 106.818 60.4204L106.703 60.3048L106.626 60.1524C106.465 59.83 106.304 59.5077 106.304 59.054V58.814L106.412 58.5968C106.414 58.5933 106.942 57.4284 107.891 55.3192L107.931 55.2317L107.971 55.1721C108.092 54.9882 108.335 54.2945 108.774 53.0472C108.962 52.5147 108.701 53.2504 109.035 52.301L109.173 51.9086L109.544 51.7229C109.599 51.6966 109.814 51.4829 110.045 51.2516C110.388 50.6946 110.775 49.9151 111.23 48.8973C111.711 47.8199 112.299 46.401 113.002 44.6685H113.004C113.121 44.3479 113.317 43.7664 113.55 43.0621C113.767 42.4087 114.024 41.6415 114.365 40.671H114.364C114.519 40.205 114.818 39.8967 115.265 39.711C115.562 39.5884 115.903 39.5376 116.297 39.5376C116.687 39.5376 117.228 39.7023 117.72 40.0316L117.903 40.1542L118.024 40.3522C118.761 41.5626 119.662 42.9693 120.714 44.5547C121.741 46.1015 122.94 47.8602 124.29 49.8082L124.292 49.8064C125.505 51.5424 126.604 53.077 127.701 54.608C128.9 56.2827 130.102 57.9627 131.125 59.4254L131.309 59.6899V60.0157C131.309 60.0245 131.327 60.1068 131.342 60.1892V60.1927C131.379 60.3766 131.416 60.5588 131.416 60.7637V63.2127L129.671 61.4942ZM120.887 51.5337L116.651 45.6513L114.463 50.9854L120.887 51.5337Z" fill="#E4032E"/>
<path d="M156.654 35.7906L156.659 56.0042C156.659 56.6174 156.507 57.234 156.057 57.8541L156.059 57.8559L156.057 57.8594H156.053C156.053 57.8611 156.052 57.8611 156.052 57.8629C155.987 57.9575 155.934 58.031 155.894 58.0783H155.891C155.835 58.1449 155.77 58.2132 155.7 58.2798C155.326 58.6336 154.85 58.8474 154.354 58.8474C154.127 58.8474 153.614 58.7037 153.044 58.4182L152.893 58.3429L152.769 58.2185C152.75 58.1992 152.715 58.1677 152.671 58.1274C152.617 58.0766 152.58 58.0451 152.575 58.0415C152.444 57.9329 152.328 57.8524 152.239 57.8016C151.441 57.5073 150.541 57.029 149.528 56.3896C148.533 55.7625 147.418 54.9725 146.172 54.051C145.098 53.2575 144.133 52.527 143.171 51.7983C141.638 50.6386 140.105 49.4754 138.532 48.3718C137.773 47.8393 137.052 47.3505 136.376 46.9091L136.702 53.1716V53.2242V53.2295C136.702 53.4011 136.725 53.6341 136.777 53.9161C136.781 53.9337 136.793 53.9932 136.809 54.0738C136.865 54.3436 136.952 54.6677 137.076 55.0408C137.369 55.9202 137.566 56.5088 137.703 56.7155L137.927 57.0501L137.514 59.5376C137.117 59.7057 136.733 59.7005 136.317 59.7005C135.678 59.7005 135.152 59.3852 134.525 58.758L134.481 58.7142L134.45 58.6739C134.221 58.3866 134.04 58.1432 133.879 57.8769C133.704 57.5861 133.587 57.3111 133.51 56.9993L133.498 56.952L133.494 56.9327C133.477 56.8451 133.43 56.5928 133.36 56.2075C133.304 55.8991 133.258 55.6381 133.223 55.4262C132.989 53.9985 132.775 52.3431 132.623 50.53V50.4985C132.572 49.5227 132.52 48.561 132.45 47.5222C132.416 47.0089 132.207 44.5968 132.203 44.5775C132.051 44.5197 131.769 43.2269 131.769 43.071V43.0692V43.0657C131.771 42.6838 131.93 42.3002 132.259 41.9446C132.31 41.8903 132.373 41.829 132.45 41.7607C132.754 41.4909 133.192 41.2159 133.769 40.9583L134.299 40.7219L134.775 41.0617L152.218 53.4957L154.612 35.7048C154.626 35.0514 154.613 34.5627 154.613 33.911C154.591 33.6307 154.783 33.2453 154.946 33.142C155.971 32.7969 156.433 33.0894 156.631 33.9741L156.654 35.7906ZM156.052 57.8594C156.052 57.8611 156.05 57.8611 156.05 57.8629L156.052 57.8594ZM156.626 34.1965C156.626 34.1983 156.626 34.1983 156.626 34.1965Z" fill="#E4032E"/>
<path d="M94.8476 44.5635V44.5688C94.8476 45.4639 94.2981 46.5167 93.103 47.5923C92.9018 47.7727 92.6725 47.9637 92.417 48.1599C92.1721 48.3473 91.9218 48.5278 91.6699 48.6977C91.1676 49.1391 90.6357 49.5298 90.0915 49.8784C89.528 50.241 88.9628 50.5528 88.4081 50.8296C88.1404 50.9855 87.8447 51.1782 87.5245 51.3866C87.003 51.7247 86.415 52.1084 85.6906 52.506C84.8857 52.9877 83.4666 53.6937 81.5225 54.4943C81.148 54.6484 80.7508 54.8078 80.3326 54.9707C79.8479 55.1582 79.4086 55.3264 79.0307 55.4665L79.0184 55.4717L78.9869 55.484C78.7227 55.5716 78.483 55.6679 78.2397 55.7678C77.8233 55.936 77.3893 56.1094 76.9186 56.2443L76.9116 56.2233C76.7856 56.225 76.7156 56.1584 76.7051 56.2022L77.7585 64.3199L77.7708 64.4145V64.4495C77.7708 65.1608 77.5643 65.7231 77.1496 66.1365L76.2834 67.0036L75.5817 66.0016C74.985 65.1467 74.4496 63.9941 74.0698 62.5944C74.0016 62.3439 73.9351 62.0671 73.8704 61.7641C73.8179 61.5171 73.7671 61.2438 73.7199 60.946C73.4889 59.979 73.2334 58.8772 73.0409 58.0521C72.9902 57.8349 72.9464 57.6369 72.9062 57.4635C72.068 57.6737 71.3541 57.8541 70.7591 57.9943C69.8825 58.1992 69.2508 58.3166 68.8448 58.3166C68.2253 58.3166 67.6741 58.166 67.2507 57.9733C67.1772 57.94 67.0949 57.8979 67.0039 57.8471C66.9182 57.7998 66.8465 57.7561 66.7887 57.7175H66.7852L66.7817 57.7158L65.0371 56.5508L67.0284 55.8869C67.2034 55.8291 67.6199 55.6995 68.1431 55.5366C69.172 55.216 70.6821 54.7465 72.6455 54.0651C72.5912 53.7971 72.5475 53.5308 72.5142 53.2628C72.439 52.6742 72.4092 52.1259 72.4092 51.6249V47.1333C72.4092 47.1176 72.3882 47.03 72.3585 46.8478V46.8443C72.3165 46.5921 72.2605 46.2505 72.2098 45.9071L72.208 45.8896C72.1643 45.5813 72.1065 45.2677 72.0663 45.0312C72.0173 44.7545 71.984 44.5512 71.9823 44.3638V44.3603V44.355C71.9823 41.7467 73.6149 40.4434 76.7436 40.4434H76.7909L85.6521 40.8708C85.9181 40.8795 86.3643 40.9619 87.0975 41.0933C87.5105 41.1686 88.0442 41.2649 88.9523 41.4156L88.9751 41.4191C90.9384 41.7467 92.5833 42.076 93.6892 42.4088L94.0689 42.5227L94.2736 42.866C94.4416 43.1463 94.5641 43.4056 94.6499 43.6333C94.6761 43.7034 94.6953 43.7559 94.7023 43.7735H94.7006C94.8056 44.087 94.8493 44.3603 94.8493 44.5565V44.5635H94.8476ZM88.9873 45.5357L80.0036 44.313C79.2512 44.3148 78.504 44.3656 77.7865 44.4531C77.622 44.4724 77.5101 44.4882 77.4313 44.4987C77.1111 44.5425 76.7944 44.595 76.4864 44.6528V52.6199C80.4026 50.9049 82.6126 49.9362 83.2933 49.7067C84.6897 48.9517 85.9671 48.1196 87.1272 47.1999C87.7869 46.6744 88.4081 46.1191 88.9873 45.5357ZM72.6682 56.5211C72.67 56.5316 72.6735 56.5403 72.6717 56.5386H72.6735L72.6682 56.5211Z" fill="#E4032E"/>
<path d="M191 48.3C191 49.9992 190.251 51.5355 188.752 53.035L188.748 53.0385H188.745C188.561 53.2207 188.384 53.3889 188.218 53.5343L188.216 53.5325C188.031 53.6954 187.838 53.8531 187.644 54.0055C186.638 54.785 185.432 55.4857 184.113 56.0638L184.085 56.0761C182.428 56.74 181.026 57.2901 179.864 57.6912C178.667 58.1029 177.654 58.3849 176.774 58.5093V58.511C176.177 58.6302 175.484 58.7195 174.683 58.7756C173.913 58.8281 172.999 58.8561 171.927 58.8561C171.185 58.8561 170.413 58.7983 169.601 58.6985C168.83 58.6039 167.993 58.4637 167.092 58.2938L166.772 58.2343L166.548 58.01C166.548 58.01 166.494 57.9557 166.418 57.8559C165.708 57.6579 165.036 57.3531 164.39 56.952C163.633 56.4825 162.922 55.8922 162.227 55.1985L162.171 55.1336C161.506 54.3471 161.018 53.5816 160.696 52.8108C160.357 52.005 160.196 51.1957 160.196 50.3548V50.3513C160.196 49.5613 160.493 48.6679 161.12 47.6974C161.232 47.524 161.333 47.3733 161.424 47.2472C161.963 46.5062 162.709 45.6951 163.673 44.8245L163.713 44.7912C164.619 44.0537 165.638 43.346 166.777 42.6839C167.911 42.0252 169.171 41.4086 170.569 40.848L170.585 40.8392L170.599 40.834C170.956 40.6938 171.313 40.5642 171.664 40.4451C172.03 40.3207 172.38 40.2104 172.716 40.114C174.504 39.6007 176.165 39.3643 177.651 39.3643C177.852 39.3643 178.38 39.4869 179.231 39.7286L179.271 39.7409C179.733 39.895 180.135 39.9896 180.478 40.072C180.583 40.0965 180.687 40.1193 180.814 40.1526C182.979 40.5064 185.028 41.3105 186.958 42.5595L186.96 42.556C189.653 44.2745 191 46.1874 191 48.3ZM186.634 48.6293C186.634 47.8989 186.281 47.0528 185.577 46.1716L185.562 46.1436C185.166 45.6146 184.783 45.2484 184.403 45.0225C184.078 44.828 183.742 44.7404 183.39 44.7404C183.215 44.7404 182.982 44.8718 182.722 45.0663L182.214 45.4481L181.652 45.1679L181.647 45.1661L181.635 45.1573C181.56 45.1188 181.483 45.0698 181.407 45.0137C181.334 44.9594 181.269 44.9016 181.213 44.8438L181.21 44.8403C180.989 44.609 180.851 44.3253 180.793 44.0292C180.786 44.0134 180.781 43.9977 180.774 43.9819C180.503 43.819 180.092 43.6613 179.539 43.5387L179.453 43.5194L179.439 43.5142L179.416 43.5072C179.259 43.4564 179.141 43.4178 179.07 43.3986C178.982 43.374 178.867 43.346 178.728 43.3127C178.184 43.1866 177.698 43.1411 177.304 43.1411C176.697 43.1411 176.053 43.1901 175.351 43.2987C174.63 43.4108 173.827 43.5878 172.914 43.8383V43.84L172.905 43.8418H172.901C172.667 43.9153 172.44 43.9907 172.223 44.0642C172.014 44.1361 171.794 44.2131 171.572 44.2955C170.522 44.6826 169.594 45.0908 168.863 45.4534C168.31 45.8072 167.757 46.1839 167.225 46.6061C166.684 47.0352 166.161 47.5065 165.676 48.039L165.645 48.0758L165.64 48.081L165.638 48.0793C165.379 48.3385 165.157 48.5926 164.969 48.836C164.793 49.069 164.647 49.2915 164.534 49.5052H164.535C164.334 49.8889 164.238 50.2392 164.238 50.5545C164.238 50.8786 164.488 51.4094 164.99 52.0786L164.994 52.0838C165.036 52.1399 165.12 52.2432 165.237 52.3816L165.235 52.3834C165.319 52.4832 165.402 52.5761 165.484 52.6619C165.906 53.1086 166.362 53.4642 166.819 53.7252L166.896 53.769L166.95 53.8128C167.354 54.1351 168.054 54.3891 169.052 54.5696L169.08 54.5748C169.243 54.6046 169.4 54.6309 169.54 54.6537H169.544C169.654 54.6712 169.801 54.694 169.995 54.7202C170.721 54.8201 171.391 54.8709 171.967 54.8709H171.981C173.05 54.8709 174.247 54.7675 175.58 54.538C175.783 54.503 176.009 54.461 176.252 54.4137C177.43 54.1824 178.711 53.8566 180.097 53.4222L180.125 53.4134C182.44 52.7583 184.136 51.991 185.231 51.1133C186.172 50.3601 186.634 49.5315 186.634 48.6293Z" fill="#E4032E"/>
</g>
<defs>
<clipPath id="clip0_10166_3259">
<rect width="174" height="34" fill="white" transform="translate(17 33)"/>
</clipPath>
</defs>
</svg>
